<svg width="32" height="32" viewBox="0 0 32 32" fill="none" xmlns="http://www.w3.org/2000/svg">
<mask id="mask0_13_5532" style="mask-type:alpha" maskUnits="userSpaceOnUse" x="0" y="0" width="32" height="32">
<rect width="32" height="32" fill="white"/>
</mask>
<g mask="url(#mask0_13_5532)">
<path d="M14.1691 7.81225L14.168 7.79618L14.1659 7.78021C14.1391 7.57767 14.08 7.38066 13.9908 7.19649C13.6326 6.39359 12.7723 5.93661 11.9025 6.07206L11.8897 6.07404L11.8771 6.07668C6.2172 7.26006 2.16231 12.1716 2.16829 17.8659C2.16022 18.3281 2.18976 18.7902 2.25664 19.2478C2.41843 20.7827 2.89037 22.2701 3.64451 23.6233L3.64532 23.6247C6.26299 28.2855 11.6895 30.6932 16.9756 29.5528C22.2629 28.4121 26.1638 23.9896 26.5476 18.6763L26.5504 18.6373L26.5471 18.5983L26.5314 18.4116L26.5299 18.3948L26.5274 18.3782C26.4636 17.9605 26.2619 17.5737 25.9514 17.2791C25.5792 16.9257 25.0811 16.7337 24.5672 16.7421L24.555 16.7423L24.5427 16.7431L15.6734 17.3233C15.3044 17.3359 14.9721 17.1267 14.828 16.807C14.7616 16.5896 14.7272 16.3639 14.7256 16.1366L14.7255 16.1218L14.7246 16.107L14.5403 13.3326L14.5403 13.3322L14.1691 7.81225Z" stroke="#737791"/>
<path d="M29.8426 13.0947L29.8226 13.188L29.8132 13.2314L29.8032 13.2784L29.7997 13.2866L29.8011 13.3524L29.8015 13.3728L29.8003 13.3933C29.7798 13.7321 29.6489 14.0566 29.4257 14.3176L29.4254 14.3179C29.1927 14.5896 28.8762 14.7731 28.5298 14.8442L28.5135 14.8476L28.497 14.8498L28.3509 14.8698L28.3332 14.8723L28.3154 14.8734L18.082 15.5365C17.6066 15.5809 17.1323 15.4268 16.7761 15.109C16.4769 14.8421 16.284 14.4804 16.2294 14.0885L16.227 14.0708L16.2258 14.0531L15.5414 3.8711C15.5243 3.78609 15.524 3.69857 15.5405 3.61349C15.5684 3.21606 15.7499 2.84521 16.0458 2.57669L29.8426 13.0947ZM29.8426 13.0947L29.8269 13.0006M29.8426 13.0947L29.8269 13.0006M29.8269 13.0006C28.803 6.8706 23.4883 2.33056 17.1775 2.16796M29.8269 13.0006L17.1775 2.16796M17.1775 2.16796C16.7618 2.15075 16.3543 2.29671 16.0459 2.57658L17.1775 2.16796Z" stroke="#737791"/>
</g>
</svg>
