<svg width="26" height="28" viewBox="0 0 26 28" fill="none" xmlns="http://www.w3.org/2000/svg">
<path d="M13.0005 8.66667C14.415 8.66667 15.7715 9.22857 16.7717 10.2288C17.7719 11.229 18.3338 12.5855 18.3338 14C18.3338 15.4145 17.7719 16.771 16.7717 17.7712C15.7715 18.7714 14.415 19.3333 13.0005 19.3333C11.586 19.3333 10.2295 18.7714 9.22927 17.7712C8.22908 16.771 7.66717 15.4145 7.66717 14C7.66717 12.5855 8.22908 11.229 9.22927 10.2288C10.2295 9.22857 11.586 8.66667 13.0005 8.66667ZM13.0005 11.3333C12.2933 11.3333 11.615 11.6143 11.1149 12.1144C10.6148 12.6145 10.3338 13.2928 10.3338 14C10.3338 14.7072 10.6148 15.3855 11.1149 15.8856C11.615 16.3857 12.2933 16.6667 13.0005 16.6667C13.7078 16.6667 14.386 16.3857 14.8861 15.8856C15.3862 15.3855 15.6672 14.7072 15.6672 14C15.6672 13.2928 15.3862 12.6145 14.8861 12.1144C14.386 11.6143 13.7078 11.3333 13.0005 11.3333ZM10.3338 27.3333C10.0005 27.3333 9.72051 27.0933 9.66717 26.7733L9.17384 23.24C8.33384 22.9067 7.61384 22.4533 6.92051 21.92L3.60051 23.2667C3.30717 23.3733 2.94717 23.2667 2.78717 22.9733L0.120508 18.36C0.0389019 18.2226 0.0101328 18.0602 0.0395806 17.9032C0.0690283 17.7461 0.154676 17.6052 0.280508 17.5067L3.09384 15.2933L3.00051 14L3.09384 12.6667L0.280508 10.4933C0.154676 10.3948 0.0690283 10.2539 0.0395806 10.0968C0.0101328 9.93979 0.0389019 9.77738 0.120508 9.64L2.78717 5.02667C2.94717 4.73333 3.30717 4.61333 3.60051 4.73333L6.92051 6.06667C7.61384 5.54667 8.33384 5.09333 9.17384 4.76L9.66717 1.22667C9.72051 0.906666 10.0005 0.666666 10.3338 0.666666H15.6672C16.0005 0.666666 16.2805 0.906666 16.3338 1.22667L16.8272 4.76C17.6672 5.09333 18.3872 5.54667 19.0805 6.06667L22.4005 4.73333C22.6938 4.61333 23.0538 4.73333 23.2138 5.02667L25.8805 9.64C26.0538 9.93333 25.9738 10.2933 25.7205 10.4933L22.9072 12.6667L23.0005 14L22.9072 15.3333L25.7205 17.5067C25.9738 17.7067 26.0538 18.0667 25.8805 18.36L23.2138 22.9733C23.0538 23.2667 22.6938 23.3867 22.4005 23.2667L19.0805 21.9333C18.3872 22.4533 17.6672 22.9067 16.8272 23.24L16.3338 26.7733C16.2805 27.0933 16.0005 27.3333 15.6672 27.3333H10.3338ZM12.0005 3.33333L11.5072 6.81333C9.90717 7.14667 8.49384 8 7.46717 9.18667L4.25384 7.8L3.25384 9.53333L6.06717 11.6C5.53384 13.1556 5.53384 14.8444 6.06717 16.4L3.24051 18.48L4.24051 20.2133L7.48051 18.8267C8.50717 20 9.90717 20.8533 11.4938 21.1733L11.9872 24.6667H14.0138L14.5072 21.1867C16.0938 20.8533 17.4938 20 18.5205 18.8267L21.7605 20.2133L22.7605 18.48L19.9338 16.4133C20.4672 14.8533 20.4672 13.16 19.9338 11.6L22.7472 9.53333L21.7472 7.8L18.5338 9.18667C17.4861 7.97376 16.065 7.14357 14.4938 6.82667L14.0005 3.33333H12.0005Z" fill="#737791"/>
</svg>
