<svg width="30" height="30" viewBox="0 0 30 30" fill="none" xmlns="http://www.w3.org/2000/svg">
<path d="M2.25 27H18.75C19.9905 27 21 25.9905 21 24.75C21 24.678 20.9835 22.965 19.614 21.2775C18.8265 20.3085 17.7525 19.5405 16.422 18.9945C14.8155 18.3345 12.822 18.0015 10.5 18.0015C8.178 18.0015 6.186 18.336 4.578 18.9945C3.2475 19.5405 2.1735 20.3085 1.386 21.2775C0.0149994 22.965 0 24.678 0 24.75C0 25.9905 1.0095 27 2.25 27ZM19.5 24.7545C19.4985 25.167 19.1625 25.5 18.75 25.5H2.25C1.8375 25.5 1.5015 25.1655 1.5 24.7545C1.5015 24.702 1.548 23.412 2.6085 22.1535C4.0695 20.418 6.798 19.5015 10.5 19.5015C14.202 19.5015 16.9305 20.4195 18.3915 22.1535C19.452 23.4135 19.4985 24.702 19.5 24.7545Z" fill="#737791"/>
<path d="M10.5 16.5C13.809 16.5 16.5 13.809 16.5 10.5C16.5 7.191 13.809 4.5 10.5 4.5C7.191 4.5 4.5 7.191 4.5 10.5C4.5 13.809 7.191 16.5 10.5 16.5ZM10.5 6C12.981 6 15 8.019 15 10.5C15 12.981 12.981 15 10.5 15C8.019 15 6 12.981 6 10.5C6 8.019 8.019 6 10.5 6Z" fill="#737791"/>
<path d="M23.25 27H27.75C28.9905 27 30 25.9905 30 24.75C30 24.6945 29.988 23.3595 29.0055 22.05C28.4385 21.2925 27.6645 20.694 26.706 20.268C25.56 19.758 24.144 19.5 22.4985 19.5C22.23 19.5 21.9645 19.5075 21.708 19.521C21.294 19.5435 20.9775 19.896 20.9985 20.31C21.0195 20.724 21.3735 21.042 21.7875 21.0195C22.017 21.0075 22.2555 21.0015 22.497 21.0015C28.338 21.0015 28.4925 24.57 28.497 24.756C28.4955 25.167 28.1595 25.5015 27.747 25.5015H23.247C22.833 25.5015 22.497 25.8375 22.497 26.2515C22.497 26.6655 22.833 27.0015 23.247 27.0015L23.25 27Z" fill="#737791"/>
<path d="M22.5 18C24.981 18 27 15.981 27 13.5C27 11.019 24.981 9 22.5 9C20.019 9 18 11.019 18 13.5C18 15.981 20.019 18 22.5 18ZM22.5 10.5C24.1545 10.5 25.5 11.8455 25.5 13.5C25.5 15.1545 24.1545 16.5 22.5 16.5C20.8455 16.5 19.5 15.1545 19.5 13.5C19.5 11.8455 20.8455 10.5 22.5 10.5Z" fill="#737791"/>
</svg>
