<svg width="27" height="31" viewBox="0 0 27 31" fill="none" xmlns="http://www.w3.org/2000/svg">
<path d="M24.4248 20.3179H22.114V17.3308C22.114 16.2988 21.2919 15.4501 20.2693 15.4501H14.174V10.6824H16.5083C17.5309 10.6824 18.3529 9.83369 18.3529 8.80168V2.70157C18.3529 1.66956 17.5309 0.820801 16.5083 0.820801H10.5435C9.52085 0.820801 8.69882 1.66956 8.69882 2.70157V8.80168C8.69882 9.83369 9.52085 10.6824 10.5435 10.6824H12.8778V15.4501H6.7825C5.75984 15.4501 4.93781 16.2988 4.93781 17.3308V20.3179H2.57564C1.55298 20.3179 0.730957 21.1667 0.730957 22.1987V28.2984C0.730957 29.3304 1.55298 30.1792 2.57564 30.1792H8.54079C9.56346 30.1792 10.3855 29.3304 10.3855 28.2984V22.1987C10.3855 21.1667 9.56346 20.3179 8.54079 20.3179H6.23396V17.3308C6.23396 17.0134 6.48554 16.7642 6.7825 16.7642H20.2701C20.5668 16.7642 20.8186 17.0131 20.8186 17.3308V20.3179H18.4604C17.4378 20.3179 16.6157 21.1667 16.6157 22.1987V28.2984C16.6157 29.3304 17.4378 30.1792 18.4604 30.1792H24.4248C25.4474 30.1792 26.2695 29.3304 26.2695 28.2984V22.1987C26.2695 21.1667 25.4474 20.3179 24.4248 20.3179ZM9.99497 8.80168V2.70157C9.99497 2.3841 10.2466 2.13496 10.5435 2.13496H16.5087C16.8053 2.13496 17.0572 2.38419 17.0572 2.70157V8.80168C17.0572 9.11922 16.8059 9.36828 16.5087 9.36828H10.5435C10.2466 9.36828 9.99497 9.11914 9.99497 8.80168ZM9.08933 22.1987V28.2984C9.08933 28.6156 8.83767 28.865 8.54079 28.865H2.57564C2.27861 28.865 2.02711 28.6162 2.02711 28.2984V22.1987C2.02711 21.8816 2.27877 21.6321 2.57564 21.6321H8.54079C8.83767 21.6321 9.08933 21.8816 9.08933 22.1987ZM24.9733 28.2984C24.9733 28.6157 24.7223 28.865 24.4248 28.865H18.4604C18.1634 28.865 17.9119 28.6162 17.9119 28.2984V22.1987C17.9119 21.8815 18.1632 21.6321 18.4604 21.6321H24.4248C24.7219 21.6321 24.9733 21.8806 24.9733 22.1987V28.2984Z" fill="#737791" stroke="#737791" stroke-width="0.5"/>
</svg>
