<svg width="56" height="56" viewBox="0 0 56 56" fill="none" xmlns="http://www.w3.org/2000/svg">
<rect width="56" height="56" rx="8" fill="#5D5FEF"/>
<path d="M40.5 18C41.8807 18 43 16.8807 43 15.5C43 14.1193 41.8807 13 40.5 13C39.1193 13 38 14.1193 38 15.5C38 16.8807 39.1193 18 40.5 18Z" fill="white"/>
<path d="M21.28 31.79C20.3385 30.1916 19.9546 28.3258 20.1887 26.4855C20.4228 24.6453 21.2616 22.935 22.5733 21.6232C23.885 20.3115 25.5953 19.4727 27.4356 19.2386C29.2758 19.0045 31.1417 19.3884 32.74 20.33L34.74 18.33L34.64 18.25C32.4889 16.832 29.9127 16.2036 27.3502 16.4716C24.7878 16.7396 22.3974 17.8876 20.5862 19.72C18.7751 21.5524 17.655 23.956 17.4169 26.5214C17.1787 29.0868 17.8371 31.6555 19.28 33.79L21.28 31.79Z" fill="white"/>
<path d="M35.72 23.32C36.6616 24.9184 37.0455 26.7842 36.8114 28.6245C36.5773 30.4647 35.7385 32.175 34.4268 33.4868C33.115 34.7985 31.4047 35.6373 29.5645 35.8714C27.7242 36.1054 25.8584 35.7216 24.26 34.78L22.26 36.78C24.4021 38.2343 26.9841 38.8963 29.5617 38.652C32.1392 38.4077 34.551 37.2725 36.3817 35.4417C38.2125 33.611 39.3477 31.1992 39.592 28.6217C39.8363 26.0441 39.1743 23.4621 37.72 21.32L35.72 23.32Z" fill="white"/>
<path d="M16.5 42C17.8807 42 19 40.8807 19 39.5C19 38.1193 17.8807 37 16.5 37C15.1193 37 14 38.1193 14 39.5C14 40.8807 15.1193 42 16.5 42Z" fill="white"/>
</svg>
