<svg width="25" height="25" viewBox="0 0 25 25" fill="none" xmlns="http://www.w3.org/2000/svg">
<path d="M6.55152 2.19674C5.41942 3.3498 5.41942 5.21567 6.57249 6.36873L9.08827 8.88451C11.4573 11.2535 11.4573 15.1111 9.08827 17.4801L4.47601 12.8678C3.2915 11.6833 2.694 10.1214 2.694 8.57004C2.694 7.01864 3.2915 5.45676 4.47601 4.27225L6.52008 2.22818C6.53056 2.2177 6.54104 2.20722 6.55152 2.19674Z" fill="#5D5FEF"/>
<path d="M8.56421 8.35929L6.57256 6.36763C5.41949 5.21457 5.40901 3.35918 6.55159 2.19563C7.68369 1.0845 9.48666 1.10546 10.6083 2.22708C11.1743 2.79313 11.4574 3.53738 11.4574 4.27115C11.4574 5.00492 11.1743 5.74917 10.6083 6.31522L10.1366 6.78693" fill="#5D5FEF"/>
<path d="M18.4486 22.7939C19.5807 21.6409 19.5807 19.775 18.4277 18.6219L15.9119 16.1062C13.5429 13.7371 13.5429 9.8796 15.9119 7.51058L20.5241 12.1228C21.7086 13.3074 22.3061 14.8692 22.3061 16.4206C22.3061 17.972 21.7086 19.5339 20.5241 20.7184L18.4801 22.7625C18.4591 22.7834 18.4486 22.7939 18.4486 22.7939Z" fill="#5D5FEF"/>
<path d="M16.4251 16.6407L18.4167 18.6323C19.5698 19.7854 19.5803 21.6408 18.4377 22.8043C17.3056 23.9155 15.5026 23.8945 14.381 22.7729C13.8149 22.2068 13.5319 21.4626 13.5319 20.7288C13.5319 19.9951 13.8149 19.2508 14.381 18.6848L14.8632 18.2026" fill="#5D5FEF"/>
</svg>
