<svg width="331" height="238" viewBox="0 0 331 238" fill="none" xmlns="http://www.w3.org/2000/svg">
<g opacity="0.2">
<path d="M266.357 100.643H253.988L256.166 111.879L265.486 110.659C271.017 110.659 275.938 113.273 279.03 117.846C282.123 122.418 282.732 127.993 280.685 133.132L266.792 167.015L269.623 181.779L288.786 133.916C295.188 117.933 283.473 100.643 266.357 100.643Z" fill="#EFAB59"/>
<path d="M255.992 100.86C255.992 100.86 269.101 98.9441 277.071 115.45C271.758 111.879 265.835 109.527 256.166 111.879C253.989 100.643 255.992 100.86 255.992 100.86Z" fill="#FB9437"/>
<path d="M272.28 153.254L273.499 172.111L269.449 180.56L265.747 166.58L272.28 153.254Z" fill="#FB9437"/>
<path d="M266.357 100.643H253.988L256.166 111.879L265.486 110.659C271.017 110.659 275.938 113.273 279.03 117.846C282.123 122.418 282.732 127.993 280.685 133.132L266.792 167.015L269.623 181.779L288.786 133.916C295.188 117.933 283.473 100.643 266.357 100.643Z" stroke="#474747" stroke-width="6" stroke-miterlimit="10" stroke-linecap="round" stroke-linejoin="round"/>
<path d="M254.99 234.695H180.125C166.45 234.695 156.084 223.982 158.349 212.223L181.519 92.3246H253.553L276.723 212.223C279.031 223.982 268.622 234.695 254.99 234.695Z" fill="#FDBA61"/>
<path d="M254.99 234.695H180.125C166.45 234.695 156.084 223.982 158.349 212.223L181.519 92.3246H253.553L276.723 212.223C279.031 223.982 268.622 234.695 254.99 234.695Z" fill="#FDBA61"/>
<path d="M254.99 234.695H180.125C166.45 234.695 156.084 223.982 158.349 212.223L181.519 92.3246H253.553L276.723 212.223C279.031 223.982 268.622 234.695 254.99 234.695Z" fill="#FDBA61"/>
<path d="M201.465 219.931L205.428 103.169L205.776 92.3677H181.474L158.305 212.266C156.04 224.025 166.405 234.738 180.081 234.738H225.07C212.483 234.695 201.203 227.901 201.465 219.931Z" fill="#FCA649"/>
<path d="M181.954 216.795L196.544 92.3677H181.519L158.349 212.266C156.084 224.025 166.45 234.738 180.125 234.738H205.995C192.319 234.695 180.822 226.333 181.954 216.795Z" fill="#FB9437"/>
<path opacity="0.7" d="M254.25 93.1957H181.475V95.983H254.25V93.1957Z" fill="#FFCB92"/>
<path d="M254.99 234.695H180.125C166.45 234.695 156.084 223.982 158.349 212.223L181.519 92.3246H253.553L276.723 212.223C279.031 223.982 268.622 234.695 254.99 234.695Z" stroke="#474747" stroke-width="6" stroke-miterlimit="10" stroke-linecap="round" stroke-linejoin="round"/>
<path d="M253.597 92.3246C244.321 83.1788 231.603 77.517 217.536 77.517C203.469 77.517 190.752 83.1788 181.475 92.3246H253.597Z" fill="#8C7B5F"/>
<path d="M253.597 92.3246C244.321 83.1788 231.603 77.517 217.536 77.517C203.469 77.517 190.752 83.1788 181.475 92.3246H253.597Z" fill="#8C7B5F"/>
<path d="M181.475 92.3246H253.597C251.681 90.8874 249.59 89.6244 247.369 88.4485L224.592 86.75C218.93 86.3145 213.181 86.3581 207.519 86.8371L187.703 88.4921C185.526 89.6244 183.435 90.931 181.475 92.3246Z" fill="#736247"/>
<g opacity="0.2">
<path opacity="0.2" d="M242.361 83.9191C242.404 85.1386 231.603 81.1754 217.536 81.2625C203.469 81.1754 192.668 85.1386 192.712 83.9191C192.668 82.8739 203.469 77.038 217.536 77.1251C231.603 77.038 242.448 82.8739 242.361 83.9191Z" fill="white"/>
</g>
<path d="M253.597 92.3246C244.321 83.1788 231.603 77.517 217.536 77.517C203.469 77.517 190.752 83.1788 181.475 92.3246H253.597Z" stroke="#474747" stroke-width="6" stroke-miterlimit="10" stroke-linecap="round" stroke-linejoin="round"/>
<path d="M175.726 123.159L159.961 96.5056C159.089 95.0684 160.135 93.1957 161.833 93.1957H181.475L175.726 123.159Z" fill="#FB9437"/>
<path d="M176.858 93.1957L174.942 103.125C174.332 106.305 167.625 108.7 165.97 105.869L161.005 96.7234C159.307 96.7234 159.132 94.9813 160.003 96.462L175.769 123.116L181.518 93.1521H176.858V93.1957Z" fill="#FA8128"/>
<path opacity="0.7" d="M159.96 95.2426L160.701 96.0265H180.604L181.475 93.2392H161.833C160.178 93.1957 159.133 94.328 159.96 95.2426Z" fill="#FFCB92"/>
<path d="M175.726 123.159L159.961 96.5056C159.089 95.0684 160.135 93.1957 161.833 93.1957H181.475L175.726 123.159Z" stroke="#474747" stroke-width="6" stroke-miterlimit="10" stroke-linecap="round" stroke-linejoin="round"/>
<path d="M206.909 78.6058V73.3361C206.909 67.4566 211.656 62.7094 217.536 62.7094C223.415 62.7094 228.162 67.4566 228.162 73.3361V78.6058" stroke="#474747" stroke-width="6" stroke-miterlimit="10" stroke-linecap="round" stroke-linejoin="round"/>
<path d="M243.406 114.231L257.124 194.758" stroke="#474747" stroke-width="6" stroke-miterlimit="10" stroke-linecap="round" stroke-linejoin="round"/>
<g opacity="0.4">
<path opacity="0.15" d="M3 234.695H327.199" stroke="#474747" stroke-width="6" stroke-miterlimit="10" stroke-linecap="round" stroke-linejoin="round"/>
<g opacity="0.15">
<path opacity="0.15" d="M44.5474 140.406V104.998C44.5474 92.4988 54.6949 82.3513 67.1943 82.3513H125.684C138.184 82.3513 148.331 92.4988 148.331 104.998V140.754" stroke="#474747" stroke-width="6" stroke-miterlimit="10" stroke-linecap="round" stroke-linejoin="round"/>
<path opacity="0.15" d="M171.763 224.112H143.497V147.374C143.497 143.541 146.633 140.406 150.466 140.406H164.794C168.627 140.406 171.763 143.541 171.763 147.374V224.112Z" stroke="#474747" stroke-width="6" stroke-miterlimit="10" stroke-linecap="round" stroke-linejoin="round"/>
<path opacity="0.15" d="M160.221 224.112H143.497V234.565H160.221V224.112Z" stroke="#474747" stroke-width="6" stroke-miterlimit="10" stroke-linecap="round" stroke-linejoin="round"/>
<path opacity="0.15" d="M49.1643 224.112H32.4404V234.565H49.1643V224.112Z" stroke="#474747" stroke-width="6" stroke-miterlimit="10" stroke-linecap="round" stroke-linejoin="round"/>
<path opacity="0.15" d="M49.2077 224.112H20.9426V147.374C20.9426 143.541 24.0784 140.406 27.9109 140.406H42.2394C46.072 140.406 49.2077 143.541 49.2077 147.374V224.112Z" stroke="#474747" stroke-width="6" stroke-miterlimit="10" stroke-linecap="round" stroke-linejoin="round"/>
<path opacity="0.15" d="M49.338 201.64V174.681C49.338 170.196 52.9528 166.581 57.4386 166.581H135.44C139.926 166.581 143.54 170.196 143.54 174.681V201.64H49.338Z" stroke="#474747" stroke-width="6" stroke-miterlimit="10" stroke-linecap="round" stroke-linejoin="round"/>
<path opacity="0.15" d="M143.497 201.64H49.338V221.543H143.497V201.64Z" stroke="#474747" stroke-width="6" stroke-miterlimit="10" stroke-linecap="round" stroke-linejoin="round"/>
<path opacity="0.15" d="M96.4175 129.213C98.2458 129.213 99.7274 127.731 99.7274 125.903C99.7274 124.075 98.2458 122.594 96.4175 122.594C94.5896 122.594 93.1075 124.075 93.1075 125.903C93.1075 127.731 94.5896 129.213 96.4175 129.213Z" stroke="#313031" stroke-width="6" stroke-miterlimit="10" stroke-linecap="round" stroke-linejoin="round"/>
</g>
<path opacity="0.15" d="M206.082 3H143.933V48.468H206.082V3Z" stroke="#474747" stroke-width="6" stroke-miterlimit="10" stroke-linecap="round" stroke-linejoin="round"/>
<path opacity="0.15" d="M200.028 9.05412H149.987V42.4148H200.028V9.05412Z" stroke="#474747" stroke-width="6" stroke-miterlimit="10" stroke-linecap="round" stroke-linejoin="round"/>
<path opacity="0.15" d="M159.002 35.7509L166.928 21.9886L174.855 35.7509H159.002Z" stroke="#474747" stroke-width="6" stroke-miterlimit="10" stroke-linecap="round" stroke-linejoin="round"/>
<path opacity="0.15" d="M170.892 28.8702L176.162 19.7243L185.438 35.7513H174.855" stroke="#474747" stroke-width="6" stroke-miterlimit="10" stroke-linecap="round" stroke-linejoin="round"/>
<path opacity="0.15" d="M188.966 21.989C190.915 21.989 192.494 20.4094 192.494 18.4613C192.494 16.5128 190.915 14.9336 188.966 14.9336C187.018 14.9336 185.438 16.5128 185.438 18.4613C185.438 20.4094 187.018 21.989 188.966 21.989Z" stroke="#474747" stroke-width="6" stroke-miterlimit="10" stroke-linecap="round" stroke-linejoin="round"/>
<path opacity="0.15" d="M315.091 60.663H280.511V77.5175H315.091" stroke="#474747" stroke-width="6" stroke-miterlimit="10" stroke-linecap="round" stroke-linejoin="round"/>
<path opacity="0.15" d="M245.975 77.517H280.512" stroke="#474747" stroke-width="6" stroke-miterlimit="10" stroke-linecap="round" stroke-linejoin="round"/>
<path opacity="0.15" d="M280.512 60.663H267.316" stroke="#474747" stroke-width="6" stroke-miterlimit="10" stroke-linecap="round" stroke-linejoin="round"/>
<path opacity="0.15" d="M297.802 77.517H263.265V94.3716H297.802V77.517Z" stroke="#474747" stroke-width="6" stroke-miterlimit="10" stroke-linecap="round" stroke-linejoin="round"/>
<path opacity="0.15" d="M309.691 94.4587H280.511V111.313H291.704" stroke="#474747" stroke-width="6" stroke-miterlimit="10" stroke-linecap="round" stroke-linejoin="round"/>
<path opacity="0.15" d="M280.512 94.4156H245.975V111.27H280.512V94.4156Z" stroke="#474747" stroke-width="6" stroke-miterlimit="10" stroke-linecap="round" stroke-linejoin="round"/>
</g>
<path d="M86.2267 172.111C74.3806 172.111 64.7993 181.693 64.7993 193.539C64.7993 205.385 74.3806 214.966 86.2267 214.966C98.0728 214.966 107.654 205.385 107.654 193.539V172.111H86.2267ZM95.6339 193.539C95.6339 198.722 91.4094 202.946 86.2267 202.946C81.044 202.946 76.8195 198.722 76.8195 193.539C76.8195 188.356 81.044 184.132 86.2267 184.132H95.6339V193.539Z" fill="#FB9437"/>
<path d="M86.2267 172.111C74.3806 172.111 64.7993 181.693 64.7993 193.539C64.7993 205.385 74.3806 214.966 86.2267 214.966C98.0728 214.966 107.654 205.385 107.654 193.539V172.111H86.2267ZM95.6339 193.539C95.6339 198.722 91.4094 202.946 86.2267 202.946C81.044 202.946 76.8195 198.722 76.8195 193.539C76.8195 188.356 81.044 184.132 86.2267 184.132H95.6339V193.539Z" fill="#FB9437"/>
<g opacity="0.4">
<path opacity="0.7" d="M66.8031 195.629C66.8031 183.783 76.3845 174.202 88.2305 174.202H107.219V171.24H85.7916C73.9456 171.24 64.3642 180.822 64.3642 192.668C64.3642 198.547 66.716 203.861 70.5485 207.737C68.1967 204.296 66.8031 200.115 66.8031 195.629Z" fill="#FFCB92"/>
</g>
<path d="M87.3598 172.111C87.142 172.111 85.7919 172.111 85.5741 172.111H90.4084C89.3631 172.111 88.9276 173.853 87.9695 179.559C87.5775 181.867 83.6143 181.78 81.5674 183.261C79.172 184.959 76.9944 188.748 76.9944 191.927L77.1251 191.405C77.1251 192.145 76.9509 190.708 77.1251 191.405C78.0397 187.442 81.4367 184.48 85.6177 184.175C85.7048 184.175 85.7919 184.175 85.8355 184.175C85.9661 184.175 86.1403 184.175 86.271 184.175H95.6782V193.582C95.6782 198.33 92.1505 202.249 87.534 202.903C87.534 202.946 87.534 202.946 87.534 202.99C88.7099 207.301 84.7467 211.352 80.4786 210.001C72.2473 207.388 65.7145 199.375 64.9306 191.492C64.8435 192.189 64.8435 192.929 64.8435 193.626C64.8435 205.472 74.4249 215.053 86.271 215.053C89.7987 215.053 93.1521 214.182 96.0701 212.658C96.3314 212.527 96.5492 212.397 96.8105 212.266C97.8122 211.7 98.7268 211.047 99.6413 210.35C99.8591 210.176 100.033 210.045 100.208 209.871C100.251 209.827 100.295 209.784 100.338 209.784C100.512 209.609 100.687 209.479 100.861 209.305C100.904 209.261 100.948 209.218 100.991 209.174C101.166 209 101.34 208.826 101.514 208.651C101.558 208.608 101.645 208.521 101.732 208.477C102.167 208.346 102.516 208.085 102.603 207.693C102.734 207.258 102.995 206.953 103.256 206.648C103.387 206.474 103.474 206.343 103.605 206.169C103.692 206.082 103.735 205.951 103.822 205.864C103.909 205.733 104.04 205.559 104.127 205.429C104.214 205.298 104.258 205.211 104.345 205.08C104.432 204.949 104.519 204.775 104.606 204.645C104.693 204.514 104.78 204.383 104.824 204.253C104.955 204.035 105.085 203.817 105.172 203.599C105.26 203.425 105.347 203.251 105.477 203.033C105.521 202.903 105.608 202.772 105.652 202.641C105.739 202.467 105.782 202.336 105.869 202.162C105.913 202.031 106 201.901 106.043 201.77C106.131 201.596 106.174 201.422 106.261 201.248C106.305 201.117 106.348 200.986 106.392 200.856C106.479 200.681 106.523 200.464 106.566 200.289C106.61 200.159 106.653 200.028 106.697 199.941C106.784 199.68 106.827 199.418 106.914 199.157C106.914 199.114 106.958 199.07 106.958 198.983C107.045 198.678 107.089 198.373 107.176 198.025C107.219 197.938 107.219 197.807 107.219 197.72C107.263 197.502 107.306 197.284 107.35 197.067C107.35 196.936 107.394 196.805 107.394 196.675C107.437 196.457 107.437 196.239 107.481 196.021C107.481 195.891 107.524 195.76 107.524 195.629C107.524 195.412 107.568 195.15 107.568 194.933C107.568 194.845 107.568 194.715 107.568 194.628C107.568 194.279 107.611 193.931 107.611 193.626V189.314V172.111H87.3598Z" fill="#FA8128"/>
<path d="M86.2267 172.111C74.3806 172.111 64.7993 181.693 64.7993 193.539C64.7993 205.385 74.3806 214.966 86.2267 214.966C98.0728 214.966 107.654 205.385 107.654 193.539V172.111H86.2267ZM95.6339 193.539C95.6339 198.722 91.4094 202.946 86.2267 202.946C81.044 202.946 76.8195 198.722 76.8195 193.539C76.8195 188.356 81.044 184.132 86.2267 184.132H95.6339V193.539Z" stroke="#474747" stroke-width="6" stroke-miterlimit="10" stroke-linecap="round" stroke-linejoin="round"/>
<path d="M140.057 234.695C114.536 234.695 93.8488 214.008 93.8488 188.487V163.532H186.309V188.487C186.309 214.008 165.578 234.695 140.057 234.695Z" fill="#FDBA61"/>
<g opacity="0.7">
<path opacity="0.7" d="M170.675 211.439H156.52V197.197L163.619 189.227L170.675 197.197V211.439Z" fill="#A9A9A9" stroke="#FB9437" stroke-width="6" stroke-miterlimit="10" stroke-linecap="round" stroke-linejoin="round"/>
<path opacity="0.7" d="M163.62 163.532V189.227" stroke="#FB9437" stroke-width="6" stroke-miterlimit="10" stroke-linecap="round" stroke-linejoin="round"/>
</g>
<path d="M120.285 188.487V163.532H93.8054V188.487C93.8054 214.008 114.493 234.695 140.014 234.695C144.63 234.695 149.073 234.042 153.254 232.779C134.221 227.074 120.285 209.392 120.285 188.487Z" fill="#FCA649"/>
<path d="M107.698 188.487V163.532H93.8488V188.487C93.8488 214.008 114.536 234.695 140.057 234.695C142.409 234.695 144.717 234.521 146.982 234.173C124.77 230.863 107.698 211.656 107.698 188.487Z" fill="#FB9437"/>
<path opacity="0.7" d="M186.309 163.88H93.8488V166.972H186.309V163.88Z" fill="#FFCB92"/>
<path d="M140.057 234.695C114.536 234.695 93.8488 214.008 93.8488 188.487V163.532H186.309V188.487C186.309 214.008 165.578 234.695 140.057 234.695Z" stroke="#474747" stroke-width="6" stroke-miterlimit="10" stroke-linecap="round" stroke-linejoin="round"/>
<path d="M168.061 208.826H153.907V194.584L161.006 186.614L168.061 194.584V208.826Z" fill="#D51C29"/>
<path d="M168.061 208.826H153.907V194.584L161.006 186.614L168.061 194.584V208.826Z" fill="#6AB36F" stroke="#474747" stroke-width="6" stroke-miterlimit="10" stroke-linecap="round" stroke-linejoin="round"/>
<path d="M156.52 197.197L163.445 189.401L161.006 186.614L153.907 194.584V208.826H156.52V197.197Z" fill="#88CE8E"/>
<path d="M161.005 163.532V186.614" stroke="#474747" stroke-width="6" stroke-miterlimit="10" stroke-linecap="round" stroke-linejoin="round"/>
<path d="M135.528 92.3246C132.131 97.2024 130.128 105.26 130.215 109.745C130.563 126.295 141.669 126.339 143.498 137.662C143.977 140.667 143.019 145.501 140.057 153.21" stroke="#474747" stroke-width="6" stroke-miterlimit="10" stroke-linecap="round" stroke-linejoin="round"/>
<path d="M148.549 107.306C147.286 109.658 145.196 115.276 153.079 124.64C161.615 134.744 159.611 145.109 156.868 153.254" stroke="#474747" stroke-width="6" stroke-miterlimit="10" stroke-linecap="round" stroke-linejoin="round"/>
<path d="M114.318 111.575C109.702 122.637 116.539 129.997 124.161 137.967C130.127 144.238 124.117 154.386 122.158 156.476" stroke="#474747" stroke-width="6" stroke-miterlimit="10" stroke-linecap="round" stroke-linejoin="round"/>
<path d="M177.99 171.676V189.445" stroke="#474747" stroke-width="6" stroke-miterlimit="10" stroke-linecap="round" stroke-linejoin="round"/>
<path d="M168.061 208.826H153.907V194.584L161.006 186.614L168.061 194.584V208.826Z" stroke="#474747" stroke-width="6" stroke-miterlimit="10" stroke-linecap="round" stroke-linejoin="round"/>
</g>
</svg>
