<svg width="24" height="25" viewBox="0 0 24 25" fill="none" xmlns="http://www.w3.org/2000/svg">
<path d="M21.1688 13.725C21.2182 13.325 21.2552 12.925 21.2552 12.5C21.2552 12.075 21.2182 11.675 21.1688 11.275L23.7719 9.2125C24.0063 9.025 24.068 8.6875 23.9199 8.4125L21.4526 4.0875C21.3416 3.8875 21.1318 3.775 20.9098 3.775C20.8358 3.775 20.7617 3.7875 20.7001 3.8125L17.6282 5.0625C16.9867 4.5625 16.2959 4.15 15.5433 3.8375L15.0745 0.525C15.0375 0.225 14.7785 0 14.4701 0H9.5354C9.22698 0 8.96791 0.225 8.9309 0.525L8.46211 3.8375C7.70957 4.15 7.01872 4.575 6.37722 5.0625L3.30539 3.8125C3.23137 3.7875 3.15735 3.775 3.08334 3.775C2.87361 3.775 2.66389 3.8875 2.55286 4.0875L0.0855318 8.4125C-0.0748444 8.6875 -0.00082446 9.025 0.233572 9.2125L2.8366 11.275C2.78726 11.675 2.75025 12.0875 2.75025 12.5C2.75025 12.9125 2.78726 13.325 2.8366 13.725L0.233572 15.7875C-0.00082446 15.975 -0.0625078 16.3125 0.0855318 16.5875L2.55286 20.9125C2.66389 21.1125 2.87361 21.225 3.09567 21.225C3.16969 21.225 3.24371 21.2125 3.30539 21.1875L6.37722 19.9375C7.01872 20.4375 7.70957 20.85 8.46211 21.1625L8.9309 24.475C8.96791 24.775 9.22698 25 9.5354 25H14.4701C14.7785 25 15.0375 24.775 15.0745 24.475L15.5433 21.1625C16.2959 20.85 16.9867 20.425 17.6282 19.9375L20.7001 21.1875C20.7741 21.2125 20.8481 21.225 20.9221 21.225C21.1318 21.225 21.3416 21.1125 21.4526 20.9125L23.9199 16.5875C24.068 16.3125 24.0063 15.975 23.7719 15.7875L21.1688 13.725ZM18.7262 11.5875C18.7755 11.975 18.7879 12.2375 18.7879 12.5C18.7879 12.7625 18.7632 13.0375 18.7262 13.4125L18.5535 14.825L19.6514 15.7L20.9838 16.75L20.1202 18.2625L18.5535 17.625L17.2705 17.1L16.1602 17.95C15.6297 18.35 15.1239 18.65 14.6181 18.8625L13.3104 19.4L13.113 20.8125L12.8663 22.5H11.1392L10.9048 20.8125L10.7074 19.4L9.39969 18.8625C8.86922 18.6375 8.37575 18.35 7.88229 17.975L6.75965 17.1L5.45197 17.6375L3.88522 18.275L3.02165 16.7625L4.35401 15.7125L5.45197 14.8375L5.27926 13.425C5.24225 13.0375 5.21757 12.75 5.21757 12.5C5.21757 12.25 5.24225 11.9625 5.27926 11.5875L5.45197 10.175L4.35401 9.3L3.02165 8.25L3.88522 6.7375L5.45197 7.375L6.73498 7.9L7.84528 7.05C8.37575 6.65 8.88155 6.35 9.38736 6.1375L10.695 5.6L10.8924 4.1875L11.1392 2.5H12.854L13.0883 4.1875L13.2857 5.6L14.5934 6.1375C15.1239 6.3625 15.6174 6.65 16.1108 7.025L17.2335 7.9L18.5411 7.3625L20.1079 6.725L20.9715 8.2375L19.6514 9.3L18.5535 10.175L18.7262 11.5875ZM12.0027 7.5C9.27633 7.5 7.06807 9.7375 7.06807 12.5C7.06807 15.2625 9.27633 17.5 12.0027 17.5C14.7291 17.5 16.9374 15.2625 16.9374 12.5C16.9374 9.7375 14.7291 7.5 12.0027 7.5ZM12.0027 15C10.6457 15 9.5354 13.875 9.5354 12.5C9.5354 11.125 10.6457 10 12.0027 10C13.3598 10 14.4701 11.125 14.4701 12.5C14.4701 13.875 13.3598 15 12.0027 15Z" fill="black"/>
</svg>
