<svg width="12" height="12" viewBox="0 0 12 12" fill="none" xmlns="http://www.w3.org/2000/svg">
<path fill-rule="evenodd" clip-rule="evenodd" d="M9.10092 3.11257L6.43924 0.83138C6.31497 0.722442 6.15808 0.666708 6.00038 0.666626C5.89247 0.66657 5.78418 0.692569 5.68568 0.745406C5.64179 0.768892 5.60008 0.797575 5.56152 0.83138L2.89984 3.11257C2.62027 3.35217 2.58788 3.77303 2.82748 4.0526C3.06708 4.33216 3.48794 4.36456 3.7675 4.12496L5.33367 2.78268V7.94578C5.33367 8.31396 5.63214 8.61244 6.00033 8.61244C6.36852 8.61244 6.667 8.31396 6.667 7.94578L6.667 2.78261L8.23325 4.12496C8.51282 4.36456 8.93368 4.33216 9.17328 4.0526C9.41288 3.77303 9.38048 3.35217 9.10092 3.11257ZM2.00033 7.33329C2.00033 6.9651 2.2988 6.66663 2.66699 6.66663H3.66699C4.03518 6.66663 4.33366 6.36815 4.33366 5.99996C4.33366 5.63177 4.03518 5.33329 3.66699 5.33329H2.66699C1.56242 5.33329 0.666992 6.22872 0.666992 7.33329V9.33329C0.666992 10.4379 1.56242 11.3333 2.66699 11.3333H9.33366C10.4382 11.3333 11.3337 10.4379 11.3337 9.33329V7.33329C11.3337 6.22872 10.4382 5.33329 9.33366 5.33329H8.33366C7.96547 5.33329 7.66699 5.63177 7.66699 5.99996C7.66699 6.36815 7.96547 6.66663 8.33366 6.66663H9.33366C9.70185 6.66663 10.0003 6.9651 10.0003 7.33329V9.33329C10.0003 9.70148 9.70185 9.99996 9.33366 9.99996H2.66699C2.2988 9.99996 2.00033 9.70148 2.00033 9.33329V7.33329Z" fill="#0F3659"/>
</svg>
